HIERARCHY
ROOT SpineBase
{
  OFFSET 0.000000 0.000000 0.000000
  CHANNELS 6 Xposition Yposition Zposition Zrotation Xrotation Yrotation
  JOINT SpineMid
  {
    OFFSET -0.000000 28.455824 0.000000
    CHANNELS 3 Zrotation Xrotation Yrotation
    JOINT SpineShoulder
    {
      OFFSET -0.261049 21.062857 -0.587503
      CHANNELS 3 Zrotation Xrotation Yrotation
      JOINT Neck
      {
        OFFSET -0.181015 6.961905 -0.491381
        CHANNELS 3 Zrotation Xrotation Yrotation
        JOINT Head
        {
          OFFSET -2.712654 11.240004 1.682108
          CHANNELS 3 Zrotation Xrotation Yrotation
          End Site
          {
            OFFSET 0 0 0
          }
        }
      }
      JOINT ShoulderLeft
      {
        OFFSET -13.504148 -4.173231 12.922305
        CHANNELS 3 Zrotation Xrotation Yrotation
        JOINT ElbowLeft
        {
          OFFSET -1.327706 -25.685197 5.317263
          CHANNELS 3 Zrotation Xrotation Yrotation
          JOINT WristLeft
          {
            OFFSET -5.036377 -20.144628 0.397462
            CHANNELS 3 Zrotation Xrotation Yrotation
            JOINT HandLeft
            {
              OFFSET 0.268989 -5.737694 -4.388254
              CHANNELS 3 Zrotation Xrotation Yrotation
              JOINT HandTipLeft
              {
                OFFSET -1.355497 -5.363060 -1.636896
                CHANNELS 3 Zrotation Xrotation Yrotation
                End Site
                {
                  OFFSET 0 0 0
                }
              }
              JOINT ThumbLeft
              {
                OFFSET -2.898995 0.590160 -0.429748
                CHANNELS 3 Zrotation Xrotation Yrotation
                End Site
                {
                  OFFSET 0 0 0
                }
              }
            }
          }
        }
      }
      JOINT ShoulderRight
      {
        OFFSET 9.726523 -3.203156 -11.868065
        CHANNELS 3 Zrotation Xrotation Yrotation
        JOINT ElbowRight
        {
          OFFSET 4.257203 -23.133182 -5.441790
          CHANNELS 3 Zrotation Xrotation Yrotation
          JOINT WristRight
          {
            OFFSET -4.207325 -26.055422 -2.413453
            CHANNELS 3 Zrotation Xrotation Yrotation
            JOINT HandRight
            {
              OFFSET -1.825687 -7.436804 0.221709
              CHANNELS 3 Zrotation Xrotation Yrotation
              JOINT HandTipRight
              {
                OFFSET -1.678749 -6.963901 0.125347
                CHANNELS 3 Zrotation Xrotation Yrotation
                End Site
                {
                  OFFSET 0 0 0
                }
              }
              JOINT ThumbRight
              {
                OFFSET 2.241762 -0.569022 -2.508563
                CHANNELS 3 Zrotation Xrotation Yrotation
                End Site
                {
                  OFFSET 0 0 0
                }
              }
            }
          }
        }
      }
    }
  }
  JOINT HipLeft
  {
    OFFSET -6.235410 1.172493 0.267988
    CHANNELS 3 Zrotation Xrotation Yrotation
    JOINT KneeLeft
    {
      OFFSET -3.824851 -30.795500 9.759813
      CHANNELS 3 Zrotation Xrotation Yrotation
      JOINT AnkleLeft
      {
        OFFSET 0.089826 -38.449668 8.510002
        CHANNELS 3 Zrotation Xrotation Yrotation
        JOINT FootLeft
        {
          OFFSET -6.350251 -7.215363 -4.082557
          CHANNELS 3 Zrotation Xrotation Yrotation
          End Site
          {
            OFFSET 0 0 0
          }
        }
      }
    }
  }
  JOINT HipRight
  {
    OFFSET 3.842559 -0.205289 -6.694501
    CHANNELS 3 Zrotation Xrotation Yrotation
    JOINT KneeRight
    {
      OFFSET 4.644077 -36.137674 4.005144
      CHANNELS 3 Zrotation Xrotation Yrotation
      JOINT AnkleRight
      {
        OFFSET 4.101530 -33.892826 8.055284
        CHANNELS 3 Zrotation Xrotation Yrotation
        JOINT FootRight
        {
          OFFSET -2.417095 -3.615693 -8.224614
          CHANNELS 3 Zrotation Xrotation Yrotation
          End Site
          {
            OFFSET 0 0 0
          }
        }
      }
    }
  }
}
MOTION
Frames: 9
Frame Time: 0.033333
111.845237 83.406987 388.251557 3.794910 3.647134 37.462212 -0.117010 -0.049854 -37.433449 -0.055782 0.086154 0.201632 -0.370770 -0.450597 -0.084374 0.000000 0.000000 0.000000 -6.734902 -10.241313 -1.097425 -3.149578 18.785164 -1.699491 -9.688718 -11.101812 12.758139 14.789981 11.545206 -14.272685 0.000000 0.000000 0.000000 0.000000 0.000000 0.000000 2.748788 -2.497520 -1.416498 -7.344662 4.861623 0.332562 -10.505006 6.160508 -2.379926 13.509170 -3.389980 2.830026 0.000000 0.000000 0.000000 0.000000 0.000000 0.000000 3.128808 -11.622096 -31.997404 11.221862 15.711767 -3.332012 -24.913248 20.300269 -28.019302 0.000000 0.000000 0.000000 -7.274244 23.043617 -36.692037 11.689225 -5.729177 1.518880 2.363623 -30.726514 24.867036 0.000000 0.000000 0.000000
110.843987 83.076825 387.433773 4.438364 3.543074 37.005466 -0.125263 -0.064428 -36.975340 -0.064216 0.066920 0.226489 -1.063894 -0.709220 -0.226752 0.000000 0.000000 0.000000 -8.302037 -9.288832 -1.457794 -5.029917 20.322959 -1.451112 -9.436620 -9.306874 14.945796 16.644620 7.719120 -15.490715 0.000000 0.000000 0.000000 0.000000 0.000000 0.000000 2.212311 -2.935123 -1.580782 -5.433995 4.688075 0.362421 -10.322270 6.143343 -2.112937 14.353615 -3.030906 2.827498 0.000000 0.000000 0.000000 0.000000 0.000000 0.000000 1.872836 -10.715022 -32.002337 14.411387 12.163712 -2.074957 -24.781318 19.203722 -26.896050 0.000000 0.000000 0.000000 -10.138802 23.968624 -36.039429 8.412653 -0.941897 0.642743 9.132864 -33.337233 23.087687 0.000000 0.000000 0.000000
109.853167 82.700114 386.563038 5.137611 3.419893 36.728504 -0.143219 -0.069633 -36.695891 -0.081650 0.050016 0.252218 -2.410850 -1.594797 -0.443268 0.000000 0.000000 0.000000 -9.654196 -8.974510 -1.715340 -8.672590 23.108686 -0.861599 -4.427222 -12.372198 15.262356 14.106690 10.253998 -14.756841 0.000000 0.000000 0.000000 0.000000 0.000000 0.000000 1.842398 -3.442494 -1.792832 -3.680547 4.483807 0.457200 -9.213522 5.612338 -1.711171 13.702699 -1.753085 2.222473 0.000000 0.000000 0.000000 0.000000 0.000000 0.000000 3.517888 -5.919294 -32.781137 17.519256 2.776302 2.246208 -27.940396 21.781636 -24.435703 0.000000 0.000000 0.000000 -12.987017 24.701213 -35.530204 6.930847 2.604168 0.592572 10.742905 -32.063836 23.492171 0.000000 0.000000 0.000000
109.006099 82.294555 385.474096 5.959215 3.353892 35.728609 -0.169004 -0.078874 -35.694150 -0.096601 0.035372 0.283967 -3.605943 -2.309377 -0.658689 0.000000 0.000000 0.000000 -11.766645 -9.170821 -2.178499 -8.908000 24.769124 -0.422440 -5.429683 -9.967519 17.045911 12.890757 5.806450 -14.898762 0.000000 0.000000 0.000000 0.000000 0.000000 0.000000 0.883328 -3.840742 -1.911811 -0.762624 4.080332 0.329693 -8.567822 4.498102 -1.108411 13.017474 0.295440 1.212500 0.000000 0.000000 0.000000 0.000000 0.000000 0.000000 5.644572 0.399300 -33.509326 20.608571 -7.625450 7.872269 -31.856300 24.938452 -20.247612 0.000000 0.000000 0.000000 -15.942250 24.962308 -34.253885 6.120761 4.614638 0.629735 11.239108 -29.506585 23.460315 0.000000 0.000000 0.000000
107.801057 81.831243 384.088166 6.439809 3.446718 35.353799 -0.205883 -0.060950 -35.325604 -0.122133 0.026550 0.301444 -4.218805 -3.170299 -0.860486 0.000000 0.000000 0.000000 -13.536762 -9.411780 -2.652037 -11.212709 26.494126 0.577759 -0.520081 -11.171517 17.033458 9.172460 5.567728 -13.302163 0.000000 0.000000 0.000000 0.000000 0.000000 0.000000 0.450171 -4.537490 -2.027427 1.568198 3.141481 0.454539 -6.819121 4.909895 -0.756639 10.926537 0.383439 0.801448 0.000000 0.000000 0.000000 0.000000 0.000000 0.000000 9.510912 6.828144 -35.164572 23.231423 -18.692551 14.316344 -30.961946 25.523251 -17.807654 0.000000 0.000000 0.000000 -18.093095 24.775925 -33.761004 7.181276 5.675380 1.126112 10.318225 -28.982043 24.078955 0.000000 0.000000 0.000000
106.643519 81.325347 382.608694 6.906741 3.474400 34.995981 -0.279946 -0.060236 -34.971173 -0.172075 0.006302 0.314172 -4.332225 -3.679771 -1.037910 0.000000 0.000000 0.000000 -15.115971 -9.985202 -3.067874 -12.360031 27.298112 1.500133 2.274914 -9.485567 17.216821 8.082907 5.899095 -12.980118 0.000000 0.000000 0.000000 0.000000 0.000000 0.000000 0.104832 -5.339539 -2.174608 3.264458 2.708537 0.618846 -3.282536 4.053415 -0.185489 10.027563 -2.062141 1.410633 0.000000 0.000000 0.000000 0.000000 0.000000 0.000000 14.039860 13.439342 -37.504358 25.830436 -28.825411 20.905953 -30.540965 30.943611 -18.379561 0.000000 0.000000 0.000000 -19.758313 24.836530 -33.265583 8.969952 4.955692 1.388382 9.063770 -26.813533 22.895710 0.000000 0.000000 0.000000
105.046225 80.987119 381.002456 6.981104 3.570318 35.007596 -0.240204 -0.080898 -34.985342 -0.134122 0.002650 0.324419 -4.837371 -3.965222 -1.071844 0.000000 0.000000 0.000000 -15.918471 -10.723892 -3.321651 -13.495811 26.322511 2.314168 4.541764 -5.630278 17.071315 5.753999 3.686213 -12.154934 0.000000 0.000000 0.000000 0.000000 0.000000 0.000000 -0.366153 -6.073272 -2.223995 5.304076 1.955065 0.714037 -0.880356 4.694671 -0.112635 7.366825 -2.178866 1.204404 0.000000 0.000000 0.000000 0.000000 0.000000 0.000000 22.302764 19.630994 -40.927989 29.471532 -42.335075 30.292273 -27.568982 32.299175 -16.777211 0.000000 0.000000 0.000000 -20.679892 24.256723 -33.333346 11.245218 4.058248 1.762327 6.096482 -23.089181 21.400972 0.000000 0.000000 0.000000
103.351429 80.930240 379.346239 7.093412 3.650793 35.661925 -0.294086 -0.094901 -35.643794 -0.162424 -0.013461 0.325937 -5.241679 -4.218556 -1.102912 0.000000 0.000000 0.000000 -16.333133 -10.943266 -3.452989 -14.525570 24.725590 2.862953 8.106718 -2.440846 15.869278 3.604492 0.862431 -10.630398 0.000000 0.000000 0.000000 0.000000 0.000000 0.000000 -0.464974 -6.774967 -2.312927 6.563537 1.603065 0.845851 1.816968 3.761026 0.385631 4.751396 -0.316553 0.127863 0.000000 0.000000 0.000000 0.000000 0.000000 0.000000 25.651402 22.209651 -43.596000 34.100490 -47.177469 36.515519 -29.773700 33.548272 -13.732259 0.000000 0.000000 0.000000 -20.478144 23.538375 -34.173979 12.415934 2.679865 1.774739 4.499575 -20.420510 20.079376 0.000000 0.000000 0.000000
101.025633 80.707021 377.692603 6.583532 3.587015 36.589220 -0.244386 -0.116579 -36.564235 -0.135305 -0.009985 0.308449 -5.197732 -4.138414 -1.018468 0.000000 0.000000 0.000000 -15.361503 -11.783934 -3.241918 -15.702895 23.761797 3.250396 9.880032 -1.315322 14.902931 5.003738 -1.197520 -9.985136 0.000000 0.000000 0.000000 0.000000 0.000000 0.000000 -0.685728 -7.085151 -2.228835 8.549738 1.146294 0.731779 2.934121 2.557753 1.043134 4.203114 -0.441573 0.039608 0.000000 0.000000 0.000000 0.000000 0.000000 0.000000 26.264327 21.656067 -44.383900 35.938883 -47.674293 38.159954 -35.948252 36.012459 -9.073839 0.000000 0.000000 0.000000 -18.768767 22.021713 -35.468738 12.481005 1.526316 1.622151 2.009287 -15.947102 18.800213 0.000000 0.000000 0.000000
